<?xml version="1.0" encoding="utf-8"?>
<!-- Generator: Adobe Illustrator 27.0.0, SVG Export Plug-In . SVG Version: 6.00 Build 0)  -->
<svg version="1.1" id="Layer_1" xmlns="http://www.w3.org/2000/svg" xmlns:xlink="http://www.w3.org/1999/xlink" x="0px" y="0px"
	 viewBox="0 0 274.5 358.2" style="enable-background:new 0 0 274.5 358.2;" xml:space="preserve">
<style type="text/css">
	.st0{fill:#FCA26E;}
</style>
<path id="Trash-Icon-SVG-psofds" class="st0" d="M69.8,358.2c-22.5,0-41.4-16.8-43.9-39.2L0.3,102.5c-0.6-3.6,0.6-7.2,3.1-9.9
	c2.2-2.7,5.4-4.2,8.9-4.1h249.9c3.5,0,6.9,1.5,9.2,4.1c2.4,2.7,3.4,6.3,2.7,9.9l-25.5,216.6c-2.4,22.4-21.4,39.3-43.9,39.2H69.8z
	 M50.1,316.3c1.4,9.9,9.8,17.3,19.8,17.4h134.8c10.1,0.1,18.6-7.4,19.7-17.4l23.8-203.3h-222L50.1,316.3z M188.3,288.4
	c-6.8-0.7-11.9-6.8-11.2-13.6c2.7-26.2,4.1-53.5,5.1-80.4l1.7-33c0.3-6.8,5.8-11.6,12.6-11.6h0.3c6.8,0.3,12.2,6.1,11.9,12.9
	l-1.7,33c-1.7,27.2-3.1,54.8-5.4,81.4c-0.5,6.4-5.9,11.3-12.3,11.2L188.3,288.4z M125,276.2c-0.7-37.5-0.7-76.3-0.3-114.4
	c0-6.5,5.4-11.9,12.6-11.9c6.7,0,12.2,5.4,12.3,12.2c0,0,0,0.1,0,0.1c-0.3,37.8-0.3,76.6,0,113.7c0.2,6.8-5.2,12.4-11.9,12.6
	c-6.8,0.2-12.4-5.2-12.6-11.9C125,276.4,125,276.3,125,276.2L125,276.2z M85.1,288.4c-6.7,0.1-12.1-5.3-12.3-11.9
	c-0.7-21.1-2-43.2-3.7-65l-3.1-48.7c-0.2-6.9,5.1-12.6,11.9-12.9h0.7c6.5,0,11.9,5.1,12.3,11.6c0.7,16,1.7,32.4,3.1,48.4
	c1.4,22.1,2.7,44.3,3.4,66.1c0.3,6.6-4.8,12.3-11.4,12.6c-0.2,0-0.4,0-0.5,0L85.1,288.4z M12.3,66.1C5.5,66.1,0,60.6,0,53.8
	C0,47,5.5,41.5,12.3,41.5h60.6v-3.7C72.8,17,89.7,0,110.5,0c0.1,0,0.1,0,0.2,0h53.1c20.9-0.2,37.9,16.6,38.1,37.4c0,0.1,0,0.2,0,0.4
	v3.7h60.3c6.8,0,12.3,5.5,12.3,12.3c0,6.8-5.5,12.3-12.3,12.3c0,0,0,0,0,0L12.3,66.1z M97.4,37.8v3.7h79.7v-3.7
	c0-7.3-6-13.3-13.3-13.3h-53.1C103.4,24.6,97.5,30.5,97.4,37.8z"/>
</svg>
