<svg xmlns="http://www.w3.org/2000/svg" width="274.459" height="358.227" viewBox="0 0 274.459 358.227">
  <path id="Trash-Icon-SVG-psofds" d="M69.808,358.227A44.191,44.191,0,0,1,25.88,319.068L.339,102.5A11.634,11.634,0,0,1,3.4,92.622a10.985,10.985,0,0,1,8.855-4.085H262.2a12.154,12.154,0,0,1,9.194,4.085,11.443,11.443,0,0,1,2.727,9.874L248.579,319.068a43.941,43.941,0,0,1-43.925,39.159ZM50.056,316.345a20.129,20.129,0,0,0,19.752,17.367H204.654A19.624,19.624,0,0,0,224.4,316.345L248.24,113.052H26.219Zm138.251-27.923A12.554,12.554,0,0,1,177.071,274.8c2.724-26.222,4.085-53.464,5.108-80.363l1.7-33.031c.339-6.812,5.789-11.578,12.6-11.578h.342a12.505,12.505,0,0,1,11.917,12.94l-1.7,33.031c-1.7,27.242-3.062,54.822-5.447,81.383a12.248,12.248,0,0,1-12.259,11.239Zm-63.335-12.259c-.681-37.458-.681-76.278-.342-114.417,0-6.47,5.45-11.917,12.6-11.917a12.208,12.208,0,0,1,12.259,12.259c-.342,37.8-.342,76.617,0,113.733a12.261,12.261,0,1,1-24.518.342ZM85.129,288.422A12.136,12.136,0,0,1,72.87,276.5c-.681-21.111-2.043-43.244-3.743-65.039l-3.066-48.694a12.5,12.5,0,0,1,11.917-12.94h.681a12.3,12.3,0,0,1,12.259,11.578c.681,16.005,1.7,32.35,3.066,48.352,1.362,22.137,2.724,44.27,3.4,66.061a12,12,0,0,1-11.917,12.6ZM12.259,66.061a12.259,12.259,0,0,1,0-24.518H72.87V37.8A37.715,37.715,0,0,1,110.67,0h53.122a37.786,37.786,0,0,1,38.136,37.8v3.746H262.2a12.259,12.259,0,1,1,0,24.518ZM97.388,37.8v3.746h79.682V37.8a13.3,13.3,0,0,0-13.279-13.279H110.67A13.523,13.523,0,0,0,97.388,37.8Z"/>
</svg>
